# xmcd
# 
# Track frame offsets:
#     150
#     20772
#     36227
#     60712
#     80822
#     99077
#     116905
#     134720
#     153272
#     172002
#     188850
#     205285
# 
# Disc length: 3004
# 
# Revision: 56
# Processed by: cddbd v1.5.2PL0 Copyright (c) Steve Scherf et al.
# Submitted via: fre:ac v1.0.31
# 
DISCID=ad0bba0c
DTITLE=Megadeth - Youthanasia
DYEAR=1994
DGENRE=Thrash Metal
TTITLE0=Reckoning Day
TTITLE1=Train Of Consequences
TTITLE2=Addicted To Chaos
TTITLE3=A Tout Le Monde
TTITLE4=Elysian Fields
TTITLE5=The Killing Road
TTITLE6=Blood Of Heroes
TTITLE7=Family Tree
TTITLE8=Youthanasia
TTITLE9=I Thought I Knew It All
TTITLE10=Black Curtains
TTITLE11=Victory
EXTD=
EXTT0=
EXTT1=
EXTT2=
EXTT3=
EXTT4=
EXTT5=
EXTT6=
EXTT7=
EXTT8=
EXTT9=
EXTT10=
EXTT11=
PLAYORDER=
